<svg id="visual" viewBox="0 0 1440 900" width="1440" height="900" xmlns="http://www.w3.org/2000/svg" xmlns:xlink="http://www.w3.org/1999/xlink" version="1.1"><rect x="0" y="0" width="1440" height="900" fill="#f9f9f9"></rect><defs><linearGradient id="grad1_0" x1="37.5%" y1="0%" x2="100%" y2="100%"><stop offset="17.999999999999996%" stop-color="#f9f9f9" stop-opacity="1"></stop><stop offset="82%" stop-color="#f9f9f9" stop-opacity="1"></stop></linearGradient></defs><defs><linearGradient id="grad2_0" x1="0%" y1="0%" x2="62.5%" y2="100%"><stop offset="17.999999999999996%" stop-color="#f9f9f9" stop-opacity="1"></stop><stop offset="82%" stop-color="#f9f9f9" stop-opacity="1"></stop></linearGradient></defs><g transform="translate(1440, 0)"><path d="M0 339.6C-50.5 315.8 -100.9 292.1 -154 266.7C-207.1 241.4 -262.8 214.5 -294.1 169.8C-325.5 125.1 -332.6 62.5 -339.6 0L0 0Z" fill="#4caf50"></path></g><g transform="translate(0, 900)"><path d="M0 -339.6C64 -333.4 128.1 -327.2 169.8 -294.1C211.5 -261 230.9 -201 255.5 -147.5C280.1 -94 309.8 -47 339.6 0L0 0Z" fill="#4caf50"></path></g></svg>