<svg id="visual" viewBox="0 0 1440 900" width="1440" height="900" xmlns="http://www.w3.org/2000/svg" xmlns:xlink="http://www.w3.org/1999/xlink" version="1.1"><rect x="0" y="0" width="1440" height="900" fill="#4C3575"></rect><path d="M0 370L34.3 367C68.7 364 137.3 358 205.8 390.2C274.3 422.3 342.7 492.7 411.2 528.5C479.7 564.3 548.3 565.7 617 559.2C685.7 552.7 754.3 538.3 823 522.2C891.7 506 960.3 488 1028.8 466.2C1097.3 444.3 1165.7 418.7 1234.2 414.2C1302.7 409.7 1371.3 426.3 1405.7 434.7L1440 443L1440 901L1405.7 901C1371.3 901 1302.7 901 1234.2 901C1165.7 901 1097.3 901 1028.8 901C960.3 901 891.7 901 823 901C754.3 901 685.7 901 617 901C548.3 901 479.7 901 411.2 901C342.7 901 274.3 901 205.8 901C137.3 901 68.7 901 34.3 901L0 901Z" fill="#5B4B8A" stroke-linecap="round" stroke-linejoin="miter"></path></svg>