<svg id="visual" viewBox="0 0 900 600" width="900" height="600" xmlns="http://www.w3.org/2000/svg" xmlns:xlink="http://www.w3.org/1999/xlink" version="1.1"><rect x="0" y="0" width="900" height="600" fill="#4C3575"></rect><path d="M0 246L21.5 244C43 242 86 238 128.8 259.5C171.7 281 214.3 328 257.2 352C300 376 343 377 385.8 372.7C428.7 368.3 471.3 358.7 514.2 347.8C557 337 600 325 642.8 310.3C685.7 295.7 728.3 278.3 771.2 275.3C814 272.3 857 283.7 878.5 289.3L900 295L900 601L878.5 601C857 601 814 601 771.2 601C728.3 601 685.7 601 642.8 601C600 601 557 601 514.2 601C471.3 601 428.7 601 385.8 601C343 601 300 601 257.2 601C214.3 601 171.7 601 128.8 601C86 601 43 601 21.5 601L0 601Z" fill="#5B4B8A" stroke-linecap="round" stroke-linejoin="miter"></path></svg>